<?xml version="1.0" encoding="utf-8"?>
<!-- Generator: Adobe Illustrator 18.0.0, SVG Export Plug-In . SVG Version: 6.00 Build 0)  -->
<!DOCTYPE svg PUBLIC "-//W3C//DTD SVG 1.1//EN" "http://www.w3.org/Graphics/SVG/1.1/DTD/svg11.dtd">
<svg version="1.1" id="Layer_1" xmlns="http://www.w3.org/2000/svg" xmlns:xlink="http://www.w3.org/1999/xlink" x="0px" y="0px"
	 viewBox="0 0 64 64" enable-background="new 0 0 64 64" xml:space="preserve">
<g>
	<g>
		<g>
			<path fill="#316CFF" d="M32,0c17.7,0,32,14.3,32,32S49.7,64,32,64S0,49.7,0,32S14.3,0,32,0z"/>
		</g>
	</g>
	<g>
		<g>
			<path fill="#FFFFFF" d="M32,19c5.8,0,11,4.8,12,11h-5l7,8l8-8h-5c-1.1-9.2-8.3-16-17-16c-5.5,0-10.7,2.7-14,7.1l4,2.9
				C24.2,21,28.3,19,32,19z"/>
		</g>
	</g>
	<g>
		<g>
			<path fill="#FFFFFF" d="M32,45c-5.8,0-11-5-12-11h5l-7-8l-8,8h5c1.1,9,8.3,16,17,16c5.5,0,10.7-2.7,14-7.1L42,40
				C39.8,43,35.7,45,32,45z"/>
		</g>
	</g>
</g>
</svg>
